<?xml version="1.0" encoding="UTF-8"?>
<svg width="90px" height="45px" viewBox="0 0 90 45" version="1.1" xmlns="http://www.w3.org/2000/svg" xmlns:xlink="http://www.w3.org/1999/xlink">
    <!-- Generator: Sketch 56.2 (81672) - https://sketch.com -->
    <title>bootupscreen</title>
    <desc>Created with Sketch.</desc>
    <g id="Page-1" stroke="none" stroke-width="1" fill="none" fill-rule="evenodd">
        <g id="bootupscreen" fill-rule="nonzero">
            <g id="gameboy" transform="translate(15.000000, 33.000000)" fill="#414042">
                <polygon id="Path" points="28.649 11.086 34.347 11.086 34.677 9.086 31.093 9.086 31.482 6.739 34.599 6.739 34.928 4.743 31.813 4.743 32.19 2.469 35.77 2.469 36.086 0.521 30.393 0.521"></polygon>
                <path d="M25.443,0.521 L22.866,6.267 L21.622,0.521 L19.622,0.521 L16.721,9.441 L15.314,0.521 L12.8,0.521 L8.904,9.061 L9.262,6.009 L5.355,6.009 L5.355,7.958 L6.852,7.958 L6.785,8.897 C6.785,8.897 6.275,9.311 5.185,9.291 C3.797,9.266 2.447,8.203 2.569,6.214 C2.697,4.136 4.877,2.29 7.314,2.264 C8.888,2.247 9.647,2.7 9.647,2.7 L9.647,0.7 C9.647,0.7 9.493,0.183 7.441,0.183 C4.014,0.183 0.545,2.912 0.542998379,6.419 C0.541,9.163 2.39,11.292 5.331,11.155 C6.95,11.08 7.879,10.608 8.365,10.242 L7.98,11.086 L10.288,11.086 L11.675,7.957 L14.326,7.957 L14.853,11.086 L16.186,11.086 L16.981,11.086 L18.417,11.086 L20.271,5.017 L21.725,11.086 L23.058,11.086 L26.003,4.503 L26.187,11.086 L28.239,11.086 L27.803,0.52 L25.443,0.52 L25.443,0.521 Z M12.539,6.008 L13.596,3.623 L13.997,6.008 L12.539,6.008 Z" id="Shape"></path>
                <path d="M52.337,0.557 C50.001,-0.044 47.504,1.817 46.757,4.715 C46.012,7.612 47.301,10.448 49.637,11.049 C51.971,11.65 54.47,9.789 55.216,6.891 C55.961,3.994 54.672,1.159 52.337,0.557 Z M53.296,6.397 C52.833,8.199 51.422,9.394 50.147,9.065 C48.872,8.736 48.213,7.01 48.676,5.208 C49.141,3.406 50.551,2.211 51.826,2.54 C53.101,2.869 53.76,4.596 53.296,6.397 Z" id="Shape"></path>
                <polygon id="Path" points="60.424 0.521 58.271 4.11 56.731 0.521 54.474 0.521 56.947 5.718 56.295 11.086 58.321 11.086 58.937 6.316 62.809 0.521"></polygon>
                <path d="M46.275,3.255 C46.275,1.272 45.011,0.52 43.848,0.52 L39.899,0.52 L38.155,11.086 L42.788,11.086 C44.327,11.086 46.002,9.974 46.002,7.957 C46.002,5.94 44.651,5.666 44.651,5.666 C44.651,5.666 46.275,5.239 46.275,3.255 Z M42.959,2.469 C43.676,2.469 44.088,2.811 44.071,3.495 C44.052,4.265 43.66,4.743 42.942,4.743 L41.319,4.743 L41.696,2.469 L42.959,2.469 Z M40.988,6.739 L42.652,6.739 C43.643,6.778 43.951,7.154 43.951,7.906 C43.951,8.607 43.599,9.086 42.51,9.086 L40.599,9.086 L40.988,6.739 Z" id="Shape"></path>
            </g>
            <g id="color">
                <path d="M87.3341711,27 C86.7177752,27 86.0972004,26.784481 85.5957257,26.3428782 C85.5330414,26.290055 79.323114,20.8534817 77.4697474,19.2877994 C77.2921418,19.1377812 77.1187152,19.0004407 76.951557,18.8757777 C76.9703623,21.9310769 76.7342513,24.0799284 76.719625,24.2088172 C76.5545562,25.6836436 75.2340064,26.7464482 73.7776405,26.5795266 C72.3191852,26.412605 71.2702674,25.081458 71.4332467,23.6045188 L71.4332467,23.6045188 C71.4374256,23.5622602 71.8783054,19.4779632 71.4290677,14.7449962 C70.6747663,6.77501795 70.607903,4.61982763 73.823609,2.90835297 L73.9092776,2.86186847 C76.2578504,1.60467412 80.2968106,1.86245179 82.9023891,2.7435443 C84.686803,3.34572983 86.9079177,4.0979335 87.8857932,6.17283242 C88.2723465,6.99264991 88.5920366,8.34915205 87.9213143,10.145144 C87.0061231,12.6045965 84.2542811,14.4935574 81.563034,15.7359612 C83.9220542,17.7601498 88.8490423,22.0726433 89.0809743,22.2733718 C90.1904869,23.2453204 90.3137661,24.9462304 89.350517,26.0681971 C88.8218791,26.6851732 88.0801146,27 87.3341711,27 Z M76.3456085,7.6455458 C76.2724768,8.48226674 76.3853085,10.2951621 76.5148562,11.8925385 C79.0389451,11.2375297 82.123014,9.57465242 82.8292574,8.4590245 C82.3486776,8.23082787 81.5922867,7.97516314 81.2161807,7.84627431 C79.3252035,7.20816894 76.9599149,7.31592846 76.3957559,7.61807769 L76.3456085,7.6455458 Z" id="r" fill="#00A2BC"></path>
                <path d="M59.8749714,25 C55.181791,25 51.6030228,22.2094008 50.298877,17.5365234 C49.5682936,14.9195427 50.1920155,12.0421342 52.0064793,9.64323523 C54.1328041,6.83993225 57.5349237,5.15032818 61.3470424,5.00846919 C61.4997016,5.0021173 61.6523608,5 61.8028392,5 C67.2331455,5 71.5032418,8.51048063 71.9503152,13.3485073 C72.4649948,18.9339403 68.9516521,23.2701673 62.7776773,24.6633496 C61.7853924,24.8877832 60.8105543,25 59.8749714,25 Z M61.8028392,10.3927588 C61.7221479,10.3927588 61.6414566,10.3948761 61.5607653,10.3969934 C59.4475256,10.4753335 57.5981683,11.3667161 56.483756,12.8382384 C55.6855664,13.8884184 55.3780671,15.1185687 55.6615771,16.12852 C56.3049266,18.4384925 57.7224765,19.6093585 59.8749714,19.6093585 C60.3874702,19.6093585 60.9435859,19.5437222 61.52151,19.4124497 C63.503899,18.9656998 66.772987,17.6466229 66.41969,13.8333686 C66.1667118,11.1168749 63.3992184,10.3927588 61.8028392,10.3927588 Z" id="o" fill="#F9D308"></path>
                <path d="M41.6174882,27 C41.109476,27 40.5840959,26.8847883 40.0630578,26.5934982 C38.2263984,25.5761569 38.2263984,23.691467 38.2263984,21.3046278 C38.2263984,19.6655779 37.9658794,16.3266116 37.7357542,13.3811042 C37.6380596,12.1268181 37.5425359,10.9181818 37.4730642,9.87910248 C37.2711619,6.99011406 36.3180963,5.04673133 36.3072414,5.02934088 C35.6081819,3.67071202 36.142246,2.00775028 37.5012871,1.30778469 C38.8538152,0.605645295 40.5276501,1.14692304 41.2288806,2.50337809 C41.378679,2.79684193 42.7138392,5.47714496 42.9895552,9.50086021 C43.0611979,10.5268967 43.1523796,11.7181425 43.2479033,12.9550382 C43.4519765,15.5701271 43.6603918,18.2547777 43.7320345,20.1633795 C46.2677533,19.1308216 49.2333286,18.7851864 50.236327,18.7851864 C51.7625345,18.7851864 53,20.024256 53,21.5524417 C53,23.0806274 51.7625345,24.319697 50.236327,24.319697 C49.5264126,24.319697 46.4913655,24.7544582 44.9673291,25.7087591 C44.0967612,26.2543845 42.9027155,27 41.6174882,27 Z" id="l" fill="#8DC13E"></path>
                <path d="M26.884394,26 C21.6887101,26 17.7511072,22.8100183 17.0891826,18.0656689 C16.7094246,15.3567502 17.5538028,12.4019548 19.4059188,9.9560171 C21.4447314,7.26420281 24.4700664,5.48106292 27.7054351,5.06414172 C28.0342759,5.02138057 28.3673597,5 28.7025652,5 C33.3848332,5 37.4433646,9.10079414 37.9419296,14.3411729 C38.5041412,20.2486255 34.9420533,24.8604154 29.0802016,25.8204032 C28.3419011,25.9379963 27.601479,26 26.884394,26 Z M28.7004436,10.4434942 C28.5943659,10.4434942 28.4904098,10.4477703 28.3906968,10.4627367 C26.5788903,10.695785 24.8689184,11.7135003 23.6999426,13.2571778 C22.719785,14.5507025 22.2594079,16.0259621 22.4376184,17.3045205 C22.8470781,20.2357972 25.6835949,20.5522297 26.884394,20.5522297 C27.3150693,20.5522297 27.7627171,20.5158827 28.2146079,20.4410507 C31.2229704,19.9492975 32.8480802,17.8625535 32.5637921,14.8585828 C32.3007195,12.1304215 30.3552551,10.4434942 28.7004436,10.4434942 Z" id="o" fill="#622D91"></path>
                <path d="M12.2793931,27 C8.03679977,27 5.01979709,26.0956416 2.96362329,24.2498789 C0.994991682,22.4803874 0,19.9024213 0,16.5857143 C0,9.61016949 7.96420381,0 13.7462585,0 C16.4259035,0 17.9205262,1.06125908 18.6998651,1.95254237 C20.1496492,3.60653753 20.0172683,5.54600484 19.9788351,5.91864407 C19.8122915,7.44188862 18.4692662,8.54237288 16.9746435,8.37021792 C15.5953203,8.21331719 14.5725713,7.02566586 14.5576251,5.64188862 C14.410298,5.59830508 14.1455363,5.5503632 13.7462585,5.5503632 C11.8758449,5.5503632 5.4340211,11.8154964 5.4340211,16.5878935 C5.4340211,18.8193705 6.07457368,19.6539952 6.55285295,20.0854722 C7.60549436,21.0312349 10.2616524,21.9769976 16.9362104,21.1118644 C18.418022,20.9179177 19.7866694,21.994431 19.9767,23.5133172 C20.1667306,25.0343826 19.1140891,26.4225182 17.6216016,26.6164649 C15.6593755,26.8714286 13.8829097,27 12.2793931,27 Z" id="c" fill="#DC1F40"></path>
            </g>
        </g>
    </g>
</svg>